HIERARCHY
ROOT hip
{
	OFFSET 0.000000 0.000000 0.000000 
	CHANNELS 6 Xposition Yposition Zposition Xrotation Zrotation Yrotation
	JOINT abdomen
	{
		OFFSET 0.000000 3.402643 0.000000 
		CHANNELS 3 Xrotation Zrotation Yrotation
		JOINT chest
		{
			OFFSET 0.000000 8.438565 -0.680529 
			CHANNELS 3 Xrotation Zrotation Yrotation
			JOINT neck
			{
				OFFSET 0.000000 10.207942 -0.272212 
				CHANNELS 3 Xrotation Zrotation Yrotation
				JOINT head
				{
					OFFSET 0.000000 3.130431 0.000000 
					CHANNELS 3 Xrotation Zrotation Yrotation
					End Site
					{
						OFFSET 0.000000 3.130435 0.000000 
					}
				}
			}
			JOINT lCollar
			{
				OFFSET 3.470700 6.669187 -0.816635 
				CHANNELS 3 Yrotation Zrotation Xrotation
				JOINT lShldr
				{
					OFFSET 3.198488 0.000000 0.000000 
					CHANNELS 3 Zrotation Yrotation Xrotation
					JOINT lForeArm
					{
						OFFSET 10.139888 0.000000 0.000000 
						CHANNELS 3 Yrotation Zrotation Xrotation
						JOINT lHand
						{
							OFFSET 8.370511 0.000000 0.000000 
							CHANNELS 3 Zrotation Yrotation Xrotation
							End Site
							{
								OFFSET 4.083176 0.000000 0.000000 
							}
						}
					}
				}
			}
			JOINT rCollar
			{
				OFFSET -3.470700 6.669187 -0.816635 
				CHANNELS 3 Yrotation Zrotation Xrotation
				JOINT rShldr
				{
					OFFSET -3.198488 0.000000 0.000000 
					CHANNELS 3 Zrotation Yrotation Xrotation
					JOINT rForeArm
					{
						OFFSET -10.139888 0.000000 0.000000 
						CHANNELS 3 Yrotation Zrotation Xrotation
						JOINT rHand
						{
							OFFSET -8.370511 0.000000 0.000000 
							CHANNELS 3 Zrotation Yrotation Xrotation
							End Site
							{
								OFFSET -4.083176 0.000000 0.000000 
							}
						}
					}
				}
			}
		}
	}
	JOINT lThigh
	{
		OFFSET 5.308129 -1.633274 1.361059 
		CHANNELS 3 Xrotation Zrotation Yrotation
		JOINT lShin
		{
			OFFSET -2.041588 -20.007561 0.000000 
			CHANNELS 3 Xrotation Zrotation Yrotation
			JOINT lFoot
			{
				OFFSET 0.000000 -19.190928 -1.224953 
				CHANNELS 3 Xrotation Yrotation Zrotation
				End Site
				{
					OFFSET 0.000000 -2.449906 4.627600 
				}
			}
		}
	}
	JOINT rThigh
	{
		OFFSET -5.308129 -1.633274 1.361059 
		CHANNELS 3 Xrotation Zrotation Yrotation
		JOINT rShin
		{
			OFFSET 2.041588 -20.007561 0.000000 
			CHANNELS 3 Xrotation Zrotation Yrotation
			JOINT rFoot
			{
				OFFSET 0.000000 -19.190928 -1.224953 
				CHANNELS 3 Xrotation Yrotation Zrotation
				End Site
				{
					OFFSET 0.000000 -2.449906 4.627600 
				}
			}
		}
	}
}
MOTION
Frames: 19
Frame Time: 0.016667
-0.496905 44.122231 0.716147 2.744210 -0.419440 -5.606110 -16.079201 -0.395127 -2.135570 24.541599 -0.944976 -1.081600 -11.524500 11.917200 -14.260900 3.102580 10.352000 -5.838130 2.000000 -2.000000 0.000000 -86.178703 3.643160 154.884995 18.652599 -0.344383 0.043787 0.047945 -0.032427 -148.582001 -2.000000 2.000000 0.000000 -100.069000 178.699005 -5.026200 -27.051100 0.336608 0.062180 -0.057981 0.033711 -149.050995 -17.394869 4.713233 14.835875 43.335438 2.116267 3.126136 -17.077435 3.506556 1.824707 -15.936482 -0.357198 -4.187696 38.919769 -2.340839 -2.864327 -25.187756 -11.267091 -5.918545 
-0.525651 44.113087 0.701271 2.753940 -0.282876 -5.443340 -16.300100 -0.312488 -2.414940 24.414301 -0.565123 -1.190540 -11.791900 11.990800 -14.144100 2.943610 10.449500 -5.780130 2.000000 -2.000000 0.000000 -86.519699 4.022190 154.035004 18.418200 -0.344561 0.043256 0.047690 -0.031168 -148.123001 -2.000000 2.000000 0.000000 -100.469002 179.082001 -4.187270 -28.310900 0.335212 0.064842 -0.058383 0.035527 -149.714996 -16.500978 3.916385 14.195544 40.995625 2.232027 2.987370 -17.818237 4.082437 2.082845 -16.023882 -0.448706 -4.138080 39.048092 -2.339930 -2.890363 -25.293308 -11.393156 -5.994124 
-0.540865 44.101639 0.697272 2.539070 -0.126829 -5.474400 -16.309000 -0.351815 -2.464410 24.443501 -0.448186 -1.221930 -11.966900 12.159400 -14.120300 2.903800 10.508000 -5.739520 2.000000 -2.000000 0.000000 -86.450897 4.021240 153.595001 18.095900 -0.344802 0.042526 0.047471 -0.030040 -147.712997 -2.000000 2.000000 0.000000 -100.488998 179.257996 -3.845890 -29.560900 0.333769 0.067452 -0.058666 0.036752 -150.164001 -15.423265 3.143896 13.679023 39.175457 2.334309 2.886055 -18.558985 5.238747 2.531084 -15.915787 -0.594346 -4.032611 39.263477 -2.341925 -2.896399 -25.448729 -11.448065 -6.061587 
-0.556993 44.096493 0.666087 2.470710 0.107322 -5.346910 -16.347200 -0.409956 -2.508700 24.511801 -0.282529 -1.250050 -12.398400 12.437800 -14.176200 2.754520 10.654200 -5.730370 2.000000 -2.000000 0.000000 -86.245399 3.776420 153.272995 17.617399 -0.345152 0.041439 0.047192 -0.028534 -147.166000 -2.000000 2.000000 0.000000 -100.401001 179.356003 -3.748470 -30.664400 0.332448 0.069730 -0.058882 0.037657 -150.496002 -14.632173 2.330051 12.968202 37.584167 2.370346 2.793430 -19.110147 6.322917 3.009082 -15.980613 -0.764137 -3.800433 39.488972 -2.336859 -2.899818 -25.639526 -11.678665 -6.185920 
-0.565087 44.102280 0.634919 2.275430 0.331769 -5.230900 -16.124500 -0.603733 -2.359370 24.785299 -0.428518 -1.223160 -12.545000 12.620000 -14.426900 2.834050 10.634800 -5.793650 2.000000 -2.000000 0.000000 -85.600998 2.985800 153.460999 17.187700 -0.345458 0.040461 0.046968 -0.027269 -146.707001 -2.000000 2.000000 0.000000 -99.892899 179.091995 -4.099400 -31.621401 0.331267 0.071685 -0.059011 0.038188 -150.690994 -13.903860 1.573472 12.226334 36.312763 2.441222 2.694541 -19.671469 7.434956 3.474835 -15.909049 -0.920278 -3.550860 39.694866 -2.332701 -2.903920 -25.826593 -11.942914 -6.377953 
-0.577129 44.126598 0.570574 2.236420 0.517184 -4.930890 -16.287399 -0.666516 -2.554980 24.580099 -0.204573 -1.323020 -12.823700 12.982900 -14.452300 2.714330 10.849400 -5.782890 2.000000 -2.000000 0.000000 -85.376297 2.917310 153.401993 17.051001 -0.345554 0.040149 0.046804 -0.026298 -146.354996 -2.000000 2.000000 0.000000 -99.824501 179.347000 -3.719150 -32.510101 0.330141 0.073482 -0.059228 0.039064 -151.014008 -13.414437 0.937403 11.356309 34.965580 2.485010 2.625980 -19.811722 8.331478 3.818630 -15.960566 -1.029014 -3.400046 39.782997 -2.337716 -2.913569 -25.923031 -12.387465 -6.611188 
-0.576471 44.148350 0.526529 2.070450 0.653870 -4.859070 -16.364401 -0.722135 -2.620240 24.492201 -0.068198 -1.362130 -12.880500 13.257900 -14.498300 2.704040 10.995800 -5.788070 2.000000 -2.000000 0.000000 -85.102898 2.673220 153.421997 16.963100 -0.345616 0.039949 0.046680 -0.025542 -146.082001 -2.000000 2.000000 0.000000 -99.678001 179.434998 -3.475220 -33.125401 0.329345 0.074716 -0.059342 0.039515 -151.179993 -12.807853 0.423994 10.652931 33.900860 2.535148 2.543088 -20.076731 9.024124 4.123932 -15.885015 -1.113675 -3.262708 39.831749 -2.340434 -2.913512 -25.867619 -12.713877 -6.741756 
-0.569981 44.176670 0.486489 1.933800 0.839366 -4.776210 -16.220100 -0.910225 -2.483790 24.677799 -0.224029 -1.334540 -12.667300 13.489500 -14.690900 2.873090 11.035200 -5.843200 2.000000 -2.000000 0.000000 -84.410202 1.932560 154.136993 17.051001 -0.345554 0.040149 0.046764 -0.026055 -146.266998 -2.000000 2.000000 0.000000 -99.160400 179.171005 -3.699200 -33.584301 0.328743 0.075631 -0.059315 0.039409 -151.139999 -12.209819 -0.089385 9.983253 32.838078 2.566627 2.482812 -20.064587 9.682273 4.371959 -15.807522 -1.257099 -3.072315 39.850853 -2.349816 -2.916368 -25.855318 -13.006651 -6.880196 
-0.555021 44.217213 0.452453 1.826430 0.966306 -4.715120 -16.374701 -0.966661 -2.578920 24.511700 -0.107166 -1.384380 -12.193600 13.771600 -14.558400 3.052040 11.152600 -5.782230 2.000000 -2.000000 0.000000 -84.166496 1.855290 154.537003 17.412300 -0.345299 0.040973 0.046917 -0.026972 -146.598999 -2.000000 2.000000 0.000000 -99.072502 179.328003 -3.279650 -33.896801 0.328329 0.076251 -0.059275 0.039250 -151.082001 -11.804120 -0.457547 9.462932 32.138802 2.591880 2.443722 -20.064489 10.089800 4.515595 -15.699322 -1.365054 -2.931460 39.761902 -2.361622 -2.912506 -25.788469 -13.227691 -6.972248 
-0.527995 44.247581 0.448165 1.553010 1.073820 -4.873050 -16.366301 -1.061970 -2.500210 24.560600 -0.175352 -1.369730 -11.598700 14.007100 -14.473200 3.270990 11.221200 -5.751330 2.000000 -2.000000 0.000000 -83.786201 1.553840 155.132996 17.851801 -0.344981 0.041972 0.047153 -0.028319 -147.087997 -2.000000 2.000000 0.000000 -98.886902 179.367996 -2.869590 -34.092201 0.328068 0.076637 -0.059122 0.038640 -150.856995 -11.207170 -0.769287 9.157545 31.518099 2.606130 2.389640 -20.001059 10.408926 4.633355 -15.505327 -1.478783 -2.736786 39.768814 -2.388451 -2.882737 -25.727942 -13.318023 -6.966617 
-0.509291 44.284134 0.422145 1.494460 1.191000 -4.744120 -16.290600 -1.240830 -2.366780 24.775499 -0.370088 -1.345720 -10.751500 13.992200 -14.503000 3.619350 11.094200 -5.789440 2.000000 -2.000000 0.000000 -83.133003 0.901971 156.248001 18.388901 -0.344583 0.043190 0.047585 -0.030631 -147.927994 -2.000000 2.000000 0.000000 -98.427902 179.123993 -2.917830 -34.140999 0.328003 0.076733 -0.058660 0.036726 -150.154007 -10.990550 -1.011815 8.924533 31.093361 2.628034 2.353558 -19.811239 10.547136 4.636713 -15.406349 -1.592798 -2.703492 39.659973 -2.398569 -2.869151 -25.725359 -13.455343 -7.024773 
-0.495020 44.315014 0.383530 1.484720 1.239820 -4.577040 -16.600000 -1.227110 -2.552160 24.502001 -0.155880 -1.417030 -9.748350 14.046500 -14.201800 3.907980 11.113400 -5.713580 2.000000 -2.000000 0.000000 -83.065300 1.059780 156.960999 19.199400 -0.343960 0.045021 0.048046 -0.032909 -148.757996 -2.000000 2.000000 0.000000 -98.574303 179.466995 -2.166700 -34.150799 0.327990 0.076753 -0.058450 0.035820 -149.822006 -10.889994 -1.136941 8.715994 30.787914 2.641099 2.342658 -19.700392 10.596034 4.619841 -15.291581 -1.647154 -2.702978 39.464134 -2.396677 -2.862651 -25.707754 -13.550444 -7.073907 
-0.473770 44.337933 0.344638 1.455390 1.181260 -4.354560 -16.591999 -1.337600 -2.458100 24.580200 -0.370179 -1.403050 -8.616110 14.078300 -14.090700 4.335530 10.985400 -5.701650 2.000000 -2.000000 0.000000 -82.519501 0.495961 158.134003 19.990499 -0.343327 0.046799 0.048617 -0.035528 -149.714996 -2.000000 2.000000 0.000000 -98.251999 179.320999 -2.127290 -34.043301 0.328134 0.076540 -0.058162 0.034539 -149.352997 -10.807947 -1.195916 8.389887 30.589594 2.651720 2.309820 -19.641941 10.707996 4.646021 -15.188698 -1.618244 -2.806054 39.316509 -2.407947 -2.859663 -25.790712 -13.573500 -7.124582 
-0.445431 44.357613 0.301734 1.494390 1.054330 -4.083650 -16.622101 -1.427690 -2.420830 24.658400 -0.574696 -1.408500 -7.782610 14.014300 -14.051400 4.633480 10.867200 -5.733060 2.000000 -2.000000 0.000000 -82.032204 -0.067817 159.317001 20.859600 -0.342603 0.048742 0.049246 -0.038189 -150.690994 -2.000000 2.000000 0.000000 -97.988403 179.223999 -2.097760 -33.945702 0.328264 0.076347 -0.057896 0.033310 -148.904007 -10.875062 -1.199566 7.908448 30.482704 2.645472 2.319738 -19.617664 10.969717 4.708518 -15.151554 -1.536302 -3.033490 39.139332 -2.415822 -2.845953 -25.705217 -13.677529 -7.147978 
-0.417344 44.369968 0.262274 1.474770 0.839566 -3.884500 -16.680300 -1.402910 -2.437910 24.629200 -0.633163 -1.402610 -7.209050 13.962000 -13.993000 4.841970 10.797900 -5.734410 2.000000 -2.000000 0.000000 -81.759598 -0.475631 160.362000 21.894800 -0.341703 0.051043 0.050010 -0.041183 -151.794998 -2.000000 2.000000 0.000000 -97.910202 179.184998 -2.048840 -33.818699 0.328433 0.076096 -0.057711 0.032426 -148.582001 -10.895987 -1.111411 7.469354 30.452000 2.657367 2.313513 -19.653351 11.218060 4.783265 -15.040994 -1.360096 -3.194629 38.933594 -2.415805 -2.840239 -25.640324 -13.775286 -7.190611 
-0.394838 44.381428 0.219655 1.425880 0.683382 -3.674280 -16.709101 -1.394410 -2.470730 24.648701 -0.662370 -1.424450 -7.176730 13.961600 -14.010700 4.802290 10.817700 -5.761000 2.000000 -2.000000 0.000000 -81.516296 -0.863877 161.417999 23.105700 -0.340597 0.053712 0.050840 -0.044188 -152.908005 -2.000000 2.000000 0.000000 -97.861397 179.184998 -2.000010 -33.701500 0.328588 0.075863 -0.057510 0.031435 -148.220993 -10.914741 -1.065138 7.031328 30.470440 2.672012 2.317068 -19.687107 11.400040 4.850460 -14.924397 -1.225002 -3.362183 38.786060 -2.424906 -2.836439 -25.616785 -13.820240 -7.206391 
-0.376446 44.388508 0.167032 1.367240 0.507668 -3.532720 -16.863300 -1.309330 -2.576940 24.463100 -0.516376 -1.451360 -7.355290 13.979600 -13.972500 4.653530 10.906200 -5.768030 2.000000 -2.000000 0.000000 -81.468201 -0.920411 162.326004 24.375299 -0.339378 0.056485 0.051615 -0.046811 -153.884995 -2.000000 2.000000 0.000000 -98.037201 179.429993 -1.697860 -33.603901 0.328717 0.075669 -0.057289 0.030308 -147.809998 -10.907402 -1.007742 6.551834 30.440672 2.671867 2.307749 -19.711464 11.683364 4.934232 -14.843567 -1.055089 -3.475665 38.678200 -2.423004 -2.828183 -25.630957 -13.916447 -7.260792 
-0.361004 44.395458 0.116410 1.269570 0.429582 -3.437670 -16.641600 -1.351870 -2.412810 24.736601 -0.633077 -1.384260 -7.667920 13.979900 -14.189700 4.603680 10.877100 -5.845910 2.000000 -2.000000 0.000000 -81.058899 -1.718360 163.567993 25.654600 -0.338087 0.059251 0.052360 -0.049185 -154.772995 -2.000000 2.000000 0.000000 -97.822304 179.028000 -2.068000 -33.398800 0.328988 0.075261 -0.057105 0.029341 -147.459000 -10.844445 -1.012678 6.293950 30.429958 2.678535 2.299891 -19.777189 11.790005 4.973552 -14.740298 -1.018665 -3.588327 38.599266 -2.429024 -2.821990 -25.574570 -13.897090 -7.237877 
-0.350335 44.401112 0.067794 1.142600 0.361256 -3.322810 -16.853399 -1.281300 -2.585480 24.433701 -0.389731 -1.442490 -8.027610 14.063700 -14.108500 4.395350 11.024300 -5.815330 2.000000 -2.000000 0.000000 -81.137604 -1.384450 164.388000 27.197599 -0.336449 0.062547 0.053106 -0.051444 -155.623001 -2.000000 2.000000 0.000000 -98.125000 179.399994 -1.639190 -33.271801 0.329154 0.075008 -0.057031 0.028937 -147.311996 -10.761523 -1.003354 6.053482 30.429579 2.688215 2.311762 -19.792776 11.863142 4.995824 -14.678645 -0.959102 -3.695377 38.627464 -2.443314 -2.816504 -25.631329 -13.935133 -7.273341 
